# xmcd CD database file
#
# Track frame offsets:
#	150
#	19548
#	88146
#	146394
#	180342
#	247740
#
# Disc length: 3525 seconds
#
# Revision: 0
# Processed by: cddbd v1.5.2PL0 Copyright (c) Steve Scherf et al.
# Submitted via: CDex 1.51
#
DISCID=3b0dc306
DTITLE=CJ Topes Band - Live at Madam Belles 3_29_08
DYEAR=2008
DGENRE=Blues
TTITLE0=All your Lovin is Lovin
TTITLE1=Messin with the kid_Driftin Blues
TTITLE2=Hootcie Cootchie Man
TTITLE3=Help Me
TTITLE4=Eyesight to the Blind
TTITLE5=Key to the Highway
EXTD=YEAR: 2008
EXTT0=
EXTT1=
EXTT2=
EXTT3=
EXTT4=
EXTT5=
PLAYORDER=
